<svg width="24" height="24" viewBox="0 0 24 24" fill="none" xmlns="http://www.w3.org/2000/svg">
<path fill-rule="evenodd" clip-rule="evenodd" d="M7.74161 9.47675C6.51259 9.47675 5.51284 8.47599 5.51284 7.24592C5.51284 6.01586 6.51259 5.01488 7.74161 5.01488C8.9702 5.01488 9.96973 6.01586 9.96973 7.24592C9.96973 8.47599 8.9702 9.47675 7.74161 9.47675ZM7.74161 3C5.4029 3 3.50002 4.90482 3.50002 7.24571C3.50002 9.58703 5.4029 11.4916 7.74161 11.4916C10.0801 11.4916 11.9828 9.58703 11.9828 7.24571C11.9828 4.90482 10.0801 3 7.74161 3ZM16.9998 7.50992H14.6943V4.96425H16.9998C17.7954 4.96425 18.0378 5.71384 18.0378 6.2372C18.0378 6.7763 17.7954 7.50992 16.9998 7.50992ZM20.0412 6.2372C20.0412 4.41157 18.7955 3.00188 17.0092 3.00188H12.7912V11.4845H14.6941L14.6943 9.47251H17.0092C18.7313 9.47251 20.0412 8.07201 20.0412 6.2372ZM7.90945 16.248H11.6877C11.6969 16.3537 11.7087 16.5217 11.717 16.7572C11.7307 17.1523 11.7098 17.3941 11.6302 17.871C11.3091 19.8004 9.81714 20.9989 7.73766 20.9989C5.40113 20.9989 3.5 19.0963 3.5 16.7572C3.5 14.4182 5.40113 12.515 7.73766 12.515C8.99029 12.515 10.1721 13.0663 10.9802 14.0275L11.0995 14.1697L10.9452 14.2727L9.57453 15.1873L9.46022 15.2639L9.36383 15.1652C8.93106 14.7217 8.35337 14.5158 7.73766 14.5158C6.48219 14.5158 5.46058 15.5004 5.46058 16.7572C5.46058 18.0137 6.48219 19.0361 7.73766 19.0361C8.79882 19.0361 9.50284 18.4362 9.64098 17.7667H7.90945V16.248ZM20.5868 16.2491H16.8083V17.7677H18.5398C18.4019 18.4373 17.6977 19.0374 16.6363 19.0374C15.381 19.0374 14.3594 18.0148 14.3594 16.7582C14.3594 15.5013 15.381 14.5167 16.6363 14.5167C17.252 14.5167 17.8297 14.7228 18.2629 15.1663L18.3593 15.265L18.4736 15.1884L19.8443 14.2738L19.9986 14.1706L19.879 14.0286C19.071 13.0674 17.8892 12.516 16.6363 12.516C14.2998 12.516 12.3991 14.4191 12.3991 16.7582C12.3991 19.0974 14.2998 21 16.6363 21C18.7162 21 20.208 19.8014 20.5293 17.8721C20.6088 17.3954 20.6296 17.1532 20.6158 16.7582C20.6075 16.5228 20.5957 16.3548 20.5868 16.2491ZM19 10.8607C19 10.3862 19.3858 10 19.8599 10C20.3342 10 20.7199 10.3862 20.7199 10.8607C20.7199 11.3353 20.3342 11.7213 19.8599 11.7213C19.3858 11.7213 19 11.3353 19 10.8607Z" fill="#EBEEF1"/>
</svg>
