<svg width="25" height="24" viewBox="0 0 25 24" fill="none" xmlns="http://www.w3.org/2000/svg">
<path d="M13.3448 16.8004C13.3448 16.8004 13.3271 16.8004 13.316 16.8004C10.31 16.8004 8.48555 14.5361 8.48555 11.9867C8.48555 9.43741 10.4496 7.22165 13.316 7.22165C14.5419 7.22165 15.6813 7.60383 16.639 8.22239L19.6959 5.07658C18.1641 3.89028 15.9229 3 13.3647 3C8.03776 3 3.96548 6.7268 3.96548 12.0353C3.96548 17.3439 7.77617 21 13.2206 21C13.2628 21 13.3027 20.9978 13.3426 20.9978C14.0852 20.989 14.8034 20.9094 15.4951 20.768V16.4116C14.85 16.6458 14.1162 16.7982 13.3426 16.8004H13.3448Z" fill="#FFF"/>
<path d="M14.9718 13.6436H17.2441V20.2555C18.7382 19.6811 20.0816 18.7931 21.2454 17.673V7.72754L14.9718 13.6458V13.6436Z" fill="url(#paint0_linear_322_122)"/>
<defs>
<linearGradient id="paint0_linear_322_122" x1="18.1086" y1="14.0456" x2="18.1086" y2="20.2555" gradientUnits="userSpaceOnUse">
<stop stop-color="#FFF"/>
<stop offset="1" stop-color="#FFF" stop-opacity="0"/>
</linearGradient>
</defs>
</svg>
