<svg xmlns="http://www.w3.org/2000/svg" width="24" height="24" viewBox="0 0 24 24">
    <g fill="none" fill-rule="evenodd">
        <g fill="#B3CDFF" fill-rule="nonzero">
            <g>
                <g>
                    <path d="M12.765 16.8V20h-1.53v-3.2h1.53zm3.17-1.947l2.263 2.263-1.082 1.082-2.263-2.263 1.082-1.082zm-7.87 0l1.082 1.082-2.263 2.263-1.082-1.082 2.263-2.263zM12 8c2.21 0 4 1.79 4 4s-1.79 4-4 4-4-1.79-4-4 1.79-4 4-4zm8 3.235v1.53h-3.2v-1.53H20zm-12.8 0v1.53H4v-1.53h3.2zm9.916-5.433l1.082 1.082-2.263 2.263-1.082-1.082 2.263-2.263zm-10.232 0l2.263 2.263-1.082 1.082-2.263-2.263 1.082-1.082zM12.765 4v3.2h-1.53V4h1.53z" transform="translate(-1097 -822) translate(40 814) translate(1057 8)"/>
                </g>
            </g>
        </g>
    </g>
</svg>
