<svg xmlns="http://www.w3.org/2000/svg" width="24" height="24" viewBox="0 0 24 24">
    <g fill="none" fill-rule="evenodd">
        <g fill="#B3CDFF" fill-rule="nonzero">
            <g>
                <g>
                    <path d="M12 4c4.418 0 8 3.582 8 8s-3.582 8-8 8-8-3.582-8-8 3.582-8 8-8zm0 1.143c-1.276 0-2.47.348-3.494.956l.218.48s.302.479 0 1.126c-.3.648-.646.57-.987.996-.34.425-.825.223-.982.223-.11 0-.445.195-.635.312L6 9.31l-.018.01-.307.026c-.343.816-.532 1.712-.532 2.653 0 .08.001.159.004.238.299.156 1.146.61 1.356.864.256.31.336.991.705.991.37 0 .85.212.85.52 0 .307-.298.625-.15.942.15.317.256.692.256.934 0 .242-.291.148.054.576.345.429 1.166 1.014 1.196 1.254l-.006.032c.8.326 1.675.506 2.592.506 1.624 0 3.116-.564 4.291-1.508.014-.177.072-.388.178-.597.26-.517-.184-.584.257-1.1.322-.376.853-.192 1.118-.064.522-.847.864-1.816.974-2.855-.288.093-.631.055-.746-.113-.197-.292-.268-1.52-.664-1.62-.396-.1-.444-.253-.527-.073-.083.18-.091.407-.268.74-.177.333-.177.214-.177.214s-.595.545-.825.044c-.231-.501-.702-1.585-.97-1.903-.268-.317-.724-.474-.96-.384-.236.09-.55.29-1.153.173-.603-.117-.718-.58-1.024-.5-.113.03-.425.194-.548.273-.212.136-.448.061-.656.03-.328-.05-.267-.672-.017-.789.25-.117.541-.087.541-.266 0-.178-.225-.315-.42-.315-.194 0-.5-.183-.121-.437.38-.253.516-.392.605-.334.09.059.357.475.408.687.05.213.576.15.497-.161-.079-.311.075-1.012.503-1.223.428-.21 1.35-.508 1.65-.254.302.254.113.575.333.575.22 0 .9-.306 1.1-.44.094-.063.274-.223.49-.32-1.101-.753-2.434-1.194-3.869-1.194zm-.816 4.728c.717 0 1.07.738 1.521.626.452-.112.721-.207 1.195-.053.474.153.894.5.894.73 0 .229.267 1.304.427 1.528.16.224.527.597.063 1.192-.463.594-.401.944-.513 1.52-.112.577-.72 1.154-.973 1.448-.252.294-1.019.409-1.264.26-.245-.15-.301-.644-.415-.816-.114-.173-.366-.819-.156-1.354.21-.534-.289-.978-.404-1.357-.115-.378-1.118-.012-1.786-.012-.667 0-.677-.572-.787-1.298-.083-.547 0-1.111.374-1.519.51-.556 1.107-.895 1.824-.895z" transform="translate(-1129 -822) translate(40 814) translate(1089 8)"/>
                </g>
            </g>
        </g>
    </g>
</svg>
