<svg width="24" height="24" viewBox="0 0 24 24" fill="none" xmlns="http://www.w3.org/2000/svg">
<path fill-rule="evenodd" clip-rule="evenodd" d="M7.18146 4C7.04372 4 6.91781 4.07782 6.85621 4.20101C6.79462 4.32421 6.80791 4.47163 6.89055 4.58182L7.90873 5.93891V18.0611L6.52691 19.4182C6.44427 19.5284 6.43098 19.6758 6.49258 19.799C6.55417 19.9222 6.68009 20 6.81782 20H17.3633C17.4738 20 17.5782 19.9498 17.6473 19.8636L19.4655 18.0455C19.5522 17.9361 19.5689 17.7869 19.5085 17.6611C19.448 17.5353 19.321 17.4551 19.1815 17.4545H11.5451V4.36364C11.5451 4.16281 11.3823 4 11.1815 4H7.18146ZM12.2724 5.45455V6.18182C15.8815 6.18182 18.8178 9.11818 18.8178 12.7273C18.8178 14.2342 18.3011 15.6196 17.4422 16.7273H18.34C19.1267 15.5416 19.5459 14.1502 19.5451 12.7273C19.5451 8.71709 16.2825 5.45455 12.2724 5.45455ZM12.2724 16.7273V6.90909C15.4804 6.90909 18.0905 9.51927 18.0905 12.7273C18.0905 14.2771 17.4782 15.6836 16.4869 16.7273H12.2724ZM7.18146 7.54182C5.92473 8.776 5.11128 10.46 5.01055 12.3316C4.99213 12.6759 4.99784 13.0209 5.02764 13.3644C5.18219 15.1389 5.97891 16.7316 7.18146 17.9127V16.8316C6.23979 15.6711 5.72619 14.2218 5.72691 12.7273C5.72619 11.2327 6.23979 9.78347 7.18146 8.62291V7.54182ZM6.45419 12.7273C6.45354 11.7438 6.70386 10.7764 7.18146 9.91673V15.5378C6.71928 14.704 6.45419 13.7462 6.45419 12.7273Z" fill="#EBEEF1"/>
</svg>
