<svg width="24" height="24" viewBox="0 0 24 24" fill="none" xmlns="http://www.w3.org/2000/svg">
<path fill-rule="evenodd" clip-rule="evenodd" d="M12 6.4C10.7738 6.40038 9.58207 6.80578 8.61 7.5532L7.0192 5.7504C8.3872 4.658 10.1172 4 12 4C13.802 4 15.4608 4.606 16.8 5.6152L15.2636 7.4584C14.3436 6.7956 13.2184 6.4 12 6.4ZM15.8788 7.97L17.4144 6.1276C18.9996 7.5904 20 9.678 20 12C20 16.4112 16.4112 20 12 20C7.5888 20 4 16.4112 4 12C4 9.7588 4.9292 7.7332 6.4188 6.2792L8.0076 8.08C7.0148 9.0908 6.4 10.4744 6.4 12C6.4 13.032 6.68054 13.9996 7.16936 14.8306L10.4 11.6L11.6 8.4V13.6L8.68733 16.5127C9.61563 17.1959 10.7615 17.6 12 17.6C13.2385 17.6 14.3844 17.1959 15.3127 16.5127L12.4 13.6V8.4L13.6 11.6L16.8306 14.8306C17.3195 13.9996 17.6 13.032 17.6 12C17.6 10.4176 16.9376 8.9896 15.8788 7.97Z" fill="#EBEEF1"/>
</svg>
