<svg width="24" height="24" viewBox="0 0 24 24" fill="none" xmlns="http://www.w3.org/2000/svg">
<path d="M10.8155 0C10.339 1.00905 9.96889 2.04663 9.79664 3.17334C9.93957 3.01646 10.0532 2.86314 10.1961 2.74191C10.339 2.62068 10.5113 2.53154 10.6725 2.42458C10.6909 2.43527 10.7055 2.44597 10.7238 2.46023C10.6835 2.57076 10.6579 2.69199 10.5992 2.78826C10.3207 3.23752 10.1558 3.71887 10.1045 4.23944C10.0935 4.35711 10.1228 4.47477 10.1228 4.59243C10.1228 4.68514 10.1118 4.77784 10.1045 4.86698C10.1008 4.8955 10.0935 4.93116 10.1045 4.95612C10.2291 5.15936 10.339 5.37329 10.4856 5.56226C10.6102 5.71915 10.7752 5.84751 10.9217 5.98656C11.0134 6.07214 11.105 6.16128 11.2003 6.24685C11.2296 6.27181 11.2736 6.27894 11.3139 6.28607C11.5448 6.31459 11.7756 6.33955 12.0029 6.36451C12.1128 6.37521 12.2191 6.38947 12.329 6.39304C12.9924 6.4073 13.6594 6.39304 14.3227 6.43226C15.4368 6.49644 16.5179 6.70324 17.4818 7.29869C17.5954 7.37 17.698 7.45201 17.8043 7.53045C17.9032 7.60532 17.9839 7.6802 17.8812 7.81213C17.8666 7.82996 17.8593 7.87631 17.8739 7.89413C17.9106 7.95475 17.9729 8.00467 17.9985 8.07241C18.0205 8.13659 18.0095 8.21147 18.0132 8.27208C18.0975 8.28635 18.1781 8.30061 18.2954 8.31844C18.398 8.25782 18.5153 8.27565 18.5776 8.4361C18.7168 8.79622 18.8744 9.15278 18.9404 9.52716C19.076 10.2866 18.977 11.0318 18.6765 11.7521C18.3394 12.5579 17.7566 13.1533 16.998 13.5883C16.4153 13.9235 15.7813 14.1374 15.1106 14.223C15.0337 14.2337 14.9384 14.1838 14.8688 14.1339C14.7771 14.0732 14.7038 13.9877 14.5939 13.8843C14.6196 13.9841 14.6269 14.0483 14.6525 14.1053C14.7038 14.2337 14.6379 14.2907 14.5243 14.2943C14.1395 14.305 13.7583 14.3157 13.3735 14.3086C13.2599 14.305 13.2489 14.3514 13.2526 14.4298C13.2599 14.6188 13.2746 14.8077 13.2746 14.9932C13.2782 16.045 13.2672 17.0968 13.2856 18.1487C13.2929 18.5052 13.3698 18.8653 13.4102 19.2219C13.4212 19.3182 13.4212 19.418 13.4212 19.5178C13.4212 19.5713 13.4102 19.6248 13.4431 19.689C13.4835 19.6355 13.5238 19.582 13.5824 19.5107C13.6924 19.6676 13.795 19.8173 13.9196 19.9956C13.729 19.9956 13.5677 19.9956 13.4065 19.9956C13.1243 19.9956 12.8458 20.0063 12.5636 19.9921C12.472 19.9885 12.384 19.9279 12.2924 19.8994C12.2521 19.8887 12.2081 19.8815 12.1678 19.8887C11.9479 19.9207 11.7317 19.9885 11.5118 19.9921C10.5699 20.0028 9.63173 19.9956 8.68987 19.9956C8.38202 19.9956 8.37103 19.9814 8.41867 19.6783C8.37836 19.7104 8.33804 19.7282 8.31972 19.7567C8.20245 19.9849 8.00088 20.0134 7.76633 19.9956C7.5611 19.9814 7.35221 19.9921 7.14698 19.9921C7.13598 19.9742 7.12865 19.96 7.11766 19.9421C7.15797 19.91 7.19095 19.8673 7.2386 19.8423C7.35221 19.7853 7.49513 19.7567 7.58675 19.6747C8.11449 19.2041 8.61657 18.7049 8.88044 18.0346C9.04536 17.6174 9.19928 17.1967 9.32755 16.7688C9.37885 16.5976 9.45215 16.5263 9.62806 16.5335C9.6757 16.537 9.72701 16.5121 9.77466 16.5014C9.75633 16.4907 9.73801 16.4764 9.71968 16.4657C9.749 16.3659 9.76733 16.2661 9.80397 16.1698C9.82596 16.1163 9.86994 16.0735 9.91025 16.0307C10.1741 15.7669 10.1741 15.7669 9.91758 15.5137C9.69769 15.2998 9.64639 15.0324 9.67204 14.7436C9.70869 14.3335 9.74534 13.9199 9.77466 13.5099C9.79664 13.2068 9.8113 12.9073 9.80764 12.6042C9.80397 12.0587 9.80397 11.5132 9.76733 10.9676C9.71968 10.2581 9.70869 9.54142 9.51445 8.8497C9.50712 8.82474 9.49979 8.78909 9.50712 8.7677C9.6244 8.49315 9.89559 8.35409 10.1778 8.4361C10.0752 8.2293 9.97256 8.05458 9.71968 8.0011C9.60974 7.97971 9.51445 7.887 9.4155 7.82639C9.29456 7.75508 9.17362 7.68377 9.05635 7.60889C9.00504 7.5768 8.95007 7.54828 8.91709 7.50549C8.8218 7.39139 8.73751 7.27016 8.64955 7.14893C8.63489 7.12754 8.60924 7.08832 8.61657 7.07406C8.72652 6.88508 8.54694 6.89221 8.45532 6.83873C8.38202 6.79594 8.30506 6.75316 8.24642 6.69611C7.94224 6.38947 7.53545 6.25041 7.1653 6.05074C6.45799 5.66566 5.79099 5.23067 5.22661 4.66018C4.67322 4.10395 4.26276 3.46215 4.07952 2.69912C4.06119 2.61712 3.97324 2.51728 4.11983 2.43527C4.14548 2.42101 4.09418 2.24986 4.05753 2.16073C3.95125 1.9147 4.00256 1.24794 4.12716 1.0554C4.25176 1.44048 4.34338 1.87548 4.53029 2.26769C4.75751 2.74191 5.06902 3.17691 5.34022 3.62973C5.4465 3.80445 5.54178 3.98629 5.64073 4.16457C5.7067 4.09682 5.78 4.12535 5.87528 4.21805C6.06585 4.39989 6.27475 4.56391 6.47998 4.73149C6.52396 4.76714 6.57893 4.7921 6.60092 4.8028C6.72919 4.46764 6.84646 4.14317 6.98572 3.82584C7.03337 3.71887 7.14698 3.64043 7.21294 3.53703C7.2899 3.4158 7.34121 3.27674 7.42184 3.15908C7.51712 3.02002 7.6344 2.89523 7.78099 2.7847C7.72968 2.92375 7.67105 3.05924 7.6344 3.1983C7.53911 3.5299 7.48414 3.87219 7.35954 4.19309C7.25692 4.45694 7.28257 4.7101 7.27524 4.97395C7.27158 5.13083 7.32289 5.2164 7.47315 5.28772C8.06318 5.56939 8.64955 5.86533 9.23593 6.15771C9.27257 6.17554 9.30922 6.1898 9.33854 6.20406C9.23959 5.89029 9.12965 5.57653 9.04536 5.25919C8.92075 4.7921 8.92808 4.31788 9.00138 3.8401C9.21394 2.43527 9.88826 1.23725 10.7348 0.114098C10.7532 0.0713111 10.7861 0.0356555 10.8155 0ZM13.1536 9.89441C13.0803 9.87302 13.029 9.85519 13.0107 9.85162C13.062 10.119 13.1463 10.3865 13.1536 10.6539C13.1756 11.3527 13.1719 12.0551 13.1573 12.7575C13.1536 12.9644 13.084 13.1712 13.0473 13.3744C13.04 13.4065 13.0473 13.4386 13.0473 13.4778C13.1829 13.3922 13.2966 13.2746 13.4322 13.2389C14.0552 13.0678 14.5243 12.6898 14.9457 12.237C15.0447 12.1336 15.1253 12.0266 15.2426 12.0944C15.2499 12.0088 15.2243 11.8983 15.2682 11.8341C15.7557 11.1459 15.9316 10.4043 15.6677 9.59134C15.5138 9.10999 15.1949 8.76056 14.7148 8.54307C14.2641 8.33626 13.784 8.31844 13.3039 8.26495C13.1756 8.25069 13.1353 8.30417 13.139 8.42897C13.15 8.85683 13.1536 9.2847 13.1573 9.709C13.161 9.76962 13.1573 9.82666 13.1536 9.89441Z" fill="#EBEEF1"/>
</svg>
