<svg width="24" height="24" viewBox="0 0 24 24" fill="none" xmlns="http://www.w3.org/2000/svg">
<path d="M1.5646 5.10433C1.39553 5.15532 1.2694 5.22509 1.17547 5.34049C1.04129 5.50151 1.03592 5.52566 1.04666 6.00604C1.05202 6.28246 1.05202 6.77088 1.04666 7.10097C1.04129 7.69138 1.04129 7.69138 0.931259 7.65649C0.711198 7.58135 0.1852 7.61624 0.0966396 7.71285C0.0214971 7.79336 0.0214971 7.79336 0.107374 7.76384C0.171782 7.74505 0.193251 7.7531 0.17715 7.79336C0.166415 7.82825 0.12616 7.8524 0.0966396 7.84435C0.061752 7.83898 0.0402827 7.93023 0.0402827 8.09393C0.0402827 8.23885 0.0241807 8.44012 0.0107624 8.53405C-0.00802322 8.6736 0.0107624 8.73532 0.115425 8.84535C0.23619 8.97417 0.276445 8.9849 0.636056 8.9849C0.971514 8.9849 1.03055 9.00101 1.05202 9.07078C1.08154 9.18618 1.04666 14.897 1.01714 14.9775C1.00103 15.0231 0.88832 15.0419 0.670943 15.0419C0.453567 15.0419 0.295231 15.0715 0.195935 15.1278C0.04565 15.2191 0.0402827 15.2271 0.0349154 15.6189C0.0241807 16.416 0.0456501 16.4455 0.676311 16.4455H1.09765L1.08154 17.4062C1.06276 18.7588 1.10033 18.8178 2.07182 18.8715C3.51294 18.9467 7.73166 18.9762 8.42405 18.9171C8.66558 18.8984 8.88027 18.893 9.11375 18.8984C9.43847 18.9037 9.51898 18.8984 9.57802 18.842C9.62901 18.8017 9.6478 18.8017 9.6478 18.842C9.6478 18.8715 9.67195 18.8984 9.69878 18.8984C9.72831 18.8984 9.74977 18.8527 9.74977 18.7937C9.74977 18.7373 9.73099 18.7078 9.69878 18.7239C9.67463 18.74 9.6478 18.7293 9.6478 18.6998C9.6478 18.6085 9.76856 18.6702 9.82223 18.791C9.87322 18.901 9.88664 18.901 10.9977 18.901C11.6176 18.901 12.4683 18.9171 12.8897 18.9306C14.0248 18.9762 15.8041 18.9118 15.8041 18.8205C15.8041 18.7803 15.8283 18.7508 15.8605 18.7508C15.89 18.7508 15.9061 18.7856 15.8846 18.8259C15.8658 18.8903 15.9195 18.901 16.2442 18.901C16.4536 18.9064 17.6102 18.9118 18.8179 18.9171C20.0202 18.9225 20.989 18.9118 20.9755 18.8876C20.9648 18.8688 20.9916 18.8527 21.0346 18.8527C21.0856 18.8527 21.099 18.8769 21.0802 18.9118C21.0212 19.0057 22.3308 18.9279 22.5508 18.8178C22.9158 18.638 22.9373 18.5629 22.94 17.476C22.9453 16.9393 22.9588 16.4696 22.9802 16.424C22.999 16.365 23.0393 16.3542 23.1198 16.3784C23.2647 16.4294 23.8095 16.4025 23.9115 16.3489C23.9759 16.3086 23.9705 16.3033 23.8954 16.2979C23.839 16.2979 23.8095 16.2737 23.8256 16.2335C23.8363 16.204 23.8712 16.1771 23.8954 16.1825C23.9598 16.1986 24.0108 15.3962 23.9544 15.2969C23.8336 15.0822 23.8149 15.0715 23.3586 15.0473L22.9024 15.0231L22.8917 12.004L22.8756 8.99027H23.3211C23.7317 8.99027 23.7665 8.97954 23.8873 8.85072C23.992 8.74069 24.0134 8.68165 23.992 8.53942C23.9759 8.44549 23.9625 8.24421 23.9625 8.10466C23.9625 7.93559 23.9437 7.84435 23.9061 7.85508C23.8766 7.86045 23.8363 7.8363 23.8256 7.79873C23.8095 7.75847 23.831 7.74774 23.8954 7.76921C23.9759 7.79873 23.9759 7.79336 23.9115 7.72358C23.831 7.63771 23.3372 7.59745 23.1117 7.65918C22.8863 7.71822 22.8675 7.66454 22.8353 6.76283C22.779 5.37001 22.6743 5.17142 21.99 5.1902C21.7887 5.19557 21.6008 5.18484 21.5686 5.17142C21.515 5.12311 20.6642 5.06407 20.2348 5.06407C20.0685 5.06944 19.7786 5.06944 19.5854 5.06944C19.3949 5.06944 18.4046 5.08017 17.3821 5.08554C16.365 5.09091 15.3398 5.10164 15.1037 5.1097C14.8675 5.11775 14.5777 5.12848 14.4542 5.1258C12.5113 5.09628 10.9011 5.08554 10.8152 5.10701C10.7508 5.12311 10.7052 5.15263 10.7159 5.17142C10.7213 5.1902 10.7052 5.21167 10.6756 5.21704C10.6515 5.22778 10.6246 5.20094 10.6246 5.16605C10.6246 5.12043 10.3831 5.10701 9.59949 5.10701C8.80244 5.10701 8.5797 5.12311 8.58238 5.16605C8.59312 5.20094 8.5636 5.23046 8.51797 5.23046C8.47772 5.23046 8.45357 5.21167 8.46698 5.18484C8.52602 5.09359 8.2013 5.08017 5.92019 5.08017C4.6535 5.08017 3.21237 5.06944 2.71589 5.06139C2.0584 5.04529 1.74441 5.05871 1.5646 5.10433ZM11.7384 6.45958C18.5898 6.47031 20.8575 6.45421 20.8575 6.41396C20.8575 6.36833 20.8736 6.3737 20.8977 6.41396C20.9165 6.44884 21.048 6.48373 21.1822 6.4891L21.4318 6.5052L21.4371 6.75478C21.4479 7.15465 21.5123 11.1989 21.5069 11.2848C21.4908 11.7115 21.5069 14.9292 21.5311 16.051C21.5552 17.1728 21.5498 17.4921 21.5015 17.5216C21.4666 17.5404 21.2761 17.5512 21.0856 17.5458C20.7152 17.5297 19.3627 17.5297 14.1778 17.5351C11.4888 17.5404 11.1399 17.5512 11.1641 17.6156C11.1829 17.6666 11.1587 17.6907 11.0943 17.6907C11.0299 17.6907 11.003 17.6666 11.0245 17.6156C11.0487 17.5512 10.7347 17.5458 8.50724 17.5458C7.11173 17.5512 5.55521 17.5646 5.048 17.5807C4.54615 17.5995 4.13824 17.5995 4.13824 17.5753C4.13824 17.5163 3.9638 17.5351 3.89671 17.5995C3.85108 17.6451 3.82156 17.6505 3.79741 17.6102C3.77863 17.5699 3.5371 17.5512 3.1426 17.5458C2.80177 17.5404 2.5012 17.527 2.48242 17.5109C2.45826 17.4948 2.43679 17.3069 2.43679 17.0815C2.43679 16.7461 2.42606 16.687 2.36165 16.7112C2.31066 16.73 2.28651 16.7058 2.28651 16.6414C2.28651 16.577 2.31066 16.5502 2.36165 16.5716C2.42606 16.5958 2.43679 16.3757 2.44216 14.7843C2.46095 8.79705 2.46095 8.86682 2.39117 8.84267C2.35092 8.82657 2.34018 8.80778 2.37507 8.78631C2.45021 8.74069 2.46095 8.13687 2.39117 7.91412C2.35628 7.81483 2.34555 7.7048 2.37239 7.66991C2.39117 7.63502 2.41264 7.35324 2.42338 7.05535C2.42874 6.74941 2.43411 6.47568 2.43411 6.43542C2.43948 6.3898 2.469 6.37907 2.52804 6.41127C2.57366 6.43006 6.71992 6.45421 11.7384 6.45958Z" fill="#EBEEF1"/>
<path d="M18.3213 7.7209L17.2559 7.73163L17.06 7.92217C16.8936 8.08319 16.8587 8.1476 16.8346 8.38376C16.7782 8.85877 16.7782 9.52432 16.8239 10.5871C16.848 11.1533 16.8641 11.7035 16.8534 11.8135C16.8426 11.9235 16.8346 12.844 16.8346 13.8665L16.8292 15.7182L16.95 15.9141C17.0144 16.0188 17.1405 16.1342 17.2291 16.1744C17.4304 16.2603 19.4404 16.2791 19.7061 16.1986C19.9503 16.1234 20.1462 15.8739 20.1758 15.5974C20.2267 15.1117 20.2053 11.4136 20.1516 11.2741L20.0952 11.1399H19.4082C18.944 11.1399 18.7024 11.1587 18.6622 11.1989C18.6219 11.2392 18.6031 11.4351 18.6031 11.7383V12.2187L18.7534 12.3046L18.9037 12.3958L18.9091 12.9567C18.9091 13.268 18.9091 13.7672 18.9037 14.0785C18.8983 14.414 18.9198 14.6743 18.9547 14.7279C18.9949 14.7924 19.0003 14.8568 18.9601 14.9534C18.9091 15.0876 18.9037 15.0876 18.5307 15.0688C18.104 15.05 18.0261 15.0178 18.104 14.9185C18.1603 14.8487 18.1845 11.3492 18.1389 9.70413L18.1147 8.89903L18.4743 8.88024C19.011 8.85609 19.0057 8.85072 19.0057 9.21033C19.0057 9.38477 19.0298 9.54579 19.0647 9.58068C19.1103 9.6263 19.1103 9.63972 19.0647 9.63972C18.9547 9.63972 19.0003 9.77927 19.1211 9.80611C19.3009 9.84099 20.0067 9.81147 20.0577 9.76048C20.0765 9.73633 20.1087 9.34988 20.1221 8.89903L20.1409 8.07783L20.0013 7.93828C19.8806 7.81751 19.7759 7.77726 19.4404 7.72358C19.4082 7.71285 18.901 7.71285 18.3213 7.7209ZM4.01742 7.81751C3.9718 7.86313 3.95838 8.1476 3.9718 8.84267C3.9879 9.96444 3.98253 9.87856 4.04157 9.78464C4.08183 9.7256 4.09256 9.73901 4.09256 9.84368C4.09256 9.91345 4.06841 9.98323 4.03352 9.99396C3.9879 10.0101 3.97448 10.2248 3.97448 10.74C3.96911 11.3653 3.95838 11.4807 3.88324 11.5559C3.80809 11.6256 3.79199 11.7357 3.79199 12.1972C3.79199 12.5032 3.80809 12.7367 3.82688 12.7232C3.8725 12.6776 4.04157 12.8333 4.04157 12.9245C4.04157 12.9594 4.02547 12.9889 4.00669 12.9889C3.98253 12.9889 3.96106 13.6759 3.95033 14.5159C3.94496 15.3559 3.96106 16.0429 3.97985 16.0429C4.004 16.0429 4.04962 16.0993 4.07914 16.1691C4.1355 16.2898 4.15429 16.2952 4.63466 16.2952C5.37535 16.2952 5.3351 16.3864 5.32168 14.5642C5.31095 13.7672 5.30289 13.0936 5.29216 13.0668C5.2358 12.8521 5.26264 12.8413 5.97381 12.8413C6.74402 12.8413 7.03386 12.785 7.20561 12.6052L7.32101 12.479L7.33711 10.308C7.34785 8.84535 7.33174 8.0993 7.29686 8.03489C7.17072 7.80409 7.03654 7.78531 5.50954 7.76921C4.45217 7.76115 4.05499 7.77189 4.01742 7.81751ZM5.9926 9.01711C5.99796 9.0681 5.99796 9.60215 6.00333 10.2087C6.00333 10.8152 6.01943 11.2687 6.02748 11.2204C6.06774 11.0701 6.14288 11.1292 6.14288 11.3143C6.14288 11.4592 6.12678 11.4888 6.06237 11.4646C6.00601 11.4458 5.9926 11.4592 6.01138 11.5236C6.03553 11.5988 6.00601 11.6095 5.70544 11.5934C5.5149 11.5827 5.34583 11.5424 5.30558 11.5075C5.22507 11.427 5.2197 11.2821 5.29484 11.2821C5.32973 11.2821 5.34047 10.9306 5.319 10.1362C5.30826 9.50553 5.30826 8.97417 5.32436 8.96075C5.34315 8.94465 5.4988 8.93123 5.67592 8.93123C5.94429 8.93391 5.9926 8.94733 5.9926 9.01711ZM8.30055 7.80141C8.21467 7.9007 8.24419 9.01174 8.33543 8.99296C8.36495 8.98759 8.39447 9.01711 8.39447 9.05736C8.39447 9.09762 8.36495 9.12714 8.33543 9.1164C8.28981 9.11104 8.26566 9.19155 8.25492 9.37135C8.24419 9.58068 8.25492 9.63167 8.30591 9.60215C8.3569 9.57263 8.3569 9.57799 8.31665 9.63703C8.23614 9.7417 8.18247 15.4123 8.25761 15.7477C8.30323 15.9275 8.3569 16.0242 8.48304 16.1127L8.64942 16.2415L9.96173 16.2227C11.4243 16.204 11.529 16.1771 11.6873 15.8712C11.7974 15.6565 11.843 13.9685 11.8161 11.0299C11.8054 9.83294 11.7974 8.6414 11.7974 8.39182C11.7974 8.10198 11.7786 7.91681 11.741 7.88997C11.7061 7.87387 11.6712 7.8846 11.6605 7.91412C11.6363 8 11.5505 7.98927 11.5505 7.89802C11.5505 7.83898 11.47 7.82288 11.1238 7.82288C10.4367 7.82288 10.4877 7.65649 10.4931 9.96444C10.4985 11.0299 10.5119 12.2026 10.528 12.5622C10.5521 13.0372 10.5441 13.2278 10.5038 13.2278C10.4126 13.2278 10.4394 13.4183 10.5387 13.472C10.5978 13.5122 10.6085 13.5364 10.5629 13.5632C10.528 13.5928 10.4985 13.8397 10.4877 14.2878C10.4716 14.8675 10.4582 14.9883 10.3831 15.0634C10.2972 15.1493 10.2891 15.1493 10.2274 15.0634C10.1523 14.9695 9.94295 14.9534 9.79266 15.0339C9.64238 15.109 9.48672 14.9641 9.52698 14.7843C9.56187 14.634 9.58602 10.4797 9.56187 8.97417L9.54308 7.94364L9.32839 7.82825C9.18347 7.74774 9.07881 7.71822 9.01708 7.74774C8.92316 7.78799 8.5877 7.78799 8.44278 7.74237C8.39716 7.74237 8.33543 7.76115 8.30055 7.80141ZM12.7608 7.79604C12.7044 7.87118 12.6857 9.68802 12.742 9.93224C12.7662 10.0262 12.7662 10.2623 12.7527 10.4582C12.734 10.6541 12.7366 10.8339 12.7635 10.8688C12.8279 10.9493 12.7635 11.1345 12.6722 11.1345C12.632 11.1345 12.6132 11.1587 12.6266 11.1855C12.6427 11.215 12.6212 11.2714 12.581 11.3143C12.4897 11.4056 12.4656 12.106 12.5515 12.1597C12.581 12.1758 12.6025 12.2348 12.6025 12.2858C12.6025 12.3368 12.6266 12.3851 12.6588 12.3958C12.7044 12.4119 12.7179 12.8601 12.7179 14.0382C12.7125 14.9802 12.734 15.6887 12.7635 15.7263C12.7876 15.7558 12.7876 15.796 12.7688 15.8068C12.7447 15.8229 12.734 15.9275 12.7447 16.0376L12.7635 16.2415L14.0999 16.2254C16.0912 16.2093 15.9758 16.3516 15.9812 13.888C15.9812 12.2321 15.9758 12.157 15.8819 12.055C15.5813 11.7303 15.5464 11.6686 15.6269 11.6256C15.8282 11.5156 15.8765 11.2848 15.8873 10.5334C15.8926 10.1335 15.9034 9.40624 15.9114 8.91781C15.9275 8.07783 15.9221 8.02147 15.8202 7.92754C15.6645 7.77189 15.431 7.74237 14.0731 7.737C13.1258 7.737 12.801 7.74774 12.7608 7.79604ZM14.634 8.93928C14.6635 8.99027 14.6635 9.36867 14.634 10.8366C14.6286 11.2016 14.6045 11.2231 14.2288 11.1614L14.0141 11.1318L13.9845 10.6971C13.9684 10.4556 13.955 10.2274 13.9497 10.1872C13.9497 10.1469 13.9658 9.83563 13.9845 9.49748L14.0194 8.88561H14.3093C14.4676 8.88293 14.6125 8.90708 14.634 8.93928ZM14.6125 12.4576C14.6313 12.4871 14.6528 12.8735 14.6528 13.3137C14.6528 13.7538 14.6581 14.32 14.6581 14.575C14.6635 14.8246 14.6528 15.0554 14.634 15.0795C14.5937 15.1439 14.0731 15.1198 13.9872 15.0446C13.9309 14.999 13.9228 14.94 13.9523 14.8031C13.9765 14.7038 13.998 14.1375 13.998 13.5418C13.998 12.6105 14.0087 12.4549 14.0785 12.4066C14.1724 12.3368 14.5588 12.3717 14.6125 12.4576Z" fill="#EBEEF1"/>
</svg>
