<svg width="24" height="24" viewBox="0 0 24 24" fill="none" xmlns="http://www.w3.org/2000/svg">
<path fill-rule="evenodd" clip-rule="evenodd" d="M17.3836 7V7.0049C19.9501 7.10598 22 9.21751 22 11.8088C22 14.4645 19.847 16.6175 17.1912 16.6175C14.5939 16.6175 12.4789 14.558 12.3869 11.9832C12.394 11.507 12.805 11.3571 12.9955 11.3134L13.0908 11.2961H13.0909C14.3391 11.0714 16.8775 10.6174 17.712 10.4909C18.8688 10.3155 18.9078 11.401 18.9191 11.7157C18.9197 11.7327 18.9202 11.7475 18.9209 11.7597C18.921 11.7655 18.9213 11.7712 18.9215 11.777C18.922 11.7875 18.9224 11.7981 18.9224 11.8088C18.9224 12.7649 18.1473 13.5399 17.1912 13.5399C16.4565 13.5399 15.8303 13.0815 15.579 12.4357L14.052 12.7219C14.4482 14.0819 15.7051 15.0787 17.1912 15.0787C18.9943 15.0787 20.4612 13.6118 20.4612 11.8088C20.4612 10.0057 18.9943 8.5388 17.1912 8.5388H6.80876C5.00566 8.5388 3.5388 10.0057 3.5388 11.8088C3.5388 13.6118 5.00566 15.0787 6.80876 15.0787C8.29485 15.0787 9.55167 14.0819 9.94801 12.7219L8.42104 12.4357C8.16973 13.0815 7.54353 13.5399 6.80876 13.5399C5.85258 13.5399 5.0776 12.7649 5.0776 11.8088C5.0776 11.7981 5.07805 11.7875 5.07849 11.777C5.07873 11.7712 5.07897 11.7655 5.07914 11.7597C5.07976 11.7475 5.0803 11.7327 5.08091 11.7157C5.0922 11.401 5.13117 10.3155 6.28797 10.4909C7.12248 10.6174 9.66092 11.0714 10.9091 11.2961H10.9092L11.0045 11.3134C11.195 11.3571 11.606 11.507 11.6131 11.9832C11.521 14.558 9.40606 16.6175 6.80876 16.6175C4.15298 16.6175 2 14.4645 2 11.8088C2 9.15452 4.15057 7.0026 6.80433 7.0001V7H6.80876H17.1912H17.3836ZM11.2208 15.5596C11.2208 15.1347 11.5653 14.7902 11.9902 14.7902C12.4151 14.7902 12.7596 15.1347 12.7596 15.5596C12.7596 15.9845 12.4151 16.329 11.9902 16.329C11.5653 16.329 11.2208 15.9845 11.2208 15.5596Z" fill="#EBEEF1"/>
</svg>
