<svg width="24" height="24" viewBox="0 0 24 24" fill="none" xmlns="http://www.w3.org/2000/svg">
<path d="M20 4H4L5.97362 7.41263H10.0696V14.1838C10.0696 14.1838 10.6162 14.6811 11.9351 15.3081C13.2541 15.9351 13.9304 15.9351 13.9304 15.9351V7.41263H18.0541L20 4Z" fill="#EBEEF1"/>
<path d="M6.11892 10.7676C6.11892 9.22181 7.86595 9.2973 8.67027 9.2973C7.06162 8.65323 5.68026 9.47277 5.40541 9.92432L5.40369 9.92714C5.09961 10.4267 4.28394 11.7666 7.17405 14.6595C9.23284 16.7202 12.1013 17.9554 13.6175 18.5062C13.7097 18.5397 13.6851 18.6663 13.5874 18.6582C11.3651 18.473 8.77266 17.2111 7.69793 16.515C7.65685 16.4884 7.60997 16.5378 7.64113 16.5755C8.67925 17.8335 10.732 18.777 12.1081 19.3081C14.573 20.2595 19.3297 20.7568 19.3297 17.2034C19.3297 14.6331 16.7694 12.5476 15.3183 11.7476C15.2758 11.7242 15.2383 11.7778 15.2717 11.813C17.1405 13.7762 17.7362 14.4952 17.8564 15.6167C17.8707 15.7507 17.6949 15.7996 17.6241 15.6849C17.0852 14.8116 16.4867 14.1823 16.0492 13.8041C15.941 13.7106 15.8494 13.8133 15.9366 13.9266C16.2578 14.3439 16.563 14.8262 16.7179 15.3081C17.0367 16.2998 16.7626 17.2034 15.0564 17.2034C11.1957 17.2034 6.11892 12.6998 6.11892 10.7676Z" fill="#EBEEF1"/>
</svg>
